<?xml version="1.0" encoding="UTF-8"?> <svg xmlns="http://www.w3.org/2000/svg" width="32" height="38" viewBox="0 0 32 38" fill="none"><g clip-path="url(#clip0_130_307)"><path d="M31.5275 14.2292V34.8131C31.5275 36.3076 30.3307 37.521 28.863 37.521H3.13698C1.66296 37.521 0.472412 36.3076 0.472412 34.8131V14.2292" stroke="white" stroke-width="1.5" stroke-linecap="round" stroke-linejoin="round"></path><path d="M31.5276 14.2292L18.3811 25.8719" stroke="white" stroke-width="1.5" stroke-linecap="round" stroke-linejoin="round"></path><path d="M13.6189 25.8719L0.472412 14.2292" stroke="white" stroke-width="1.5" stroke-linecap="round" stroke-linejoin="round"></path><path d="M3.38265 11.649L0.472412 14.2292" stroke="white" stroke-width="1.5" stroke-linecap="round" stroke-linejoin="round"></path><path d="M12.2332 3.81279L16.0001 0.479004L19.767 3.81279" stroke="white" stroke-width="1.5" stroke-linecap="round" stroke-linejoin="round"></path><path d="M31.5277 14.2292L28.6174 11.649" stroke="white" stroke-width="1.5" stroke-linecap="round" stroke-linejoin="round"></path><path d="M16 23.7644L1.30396 36.7802" stroke="white" stroke-width="1.5" stroke-linecap="round" stroke-linejoin="round"></path><path d="M30.6961 36.7802L16 23.7644" stroke="white" stroke-width="1.5" stroke-linecap="round" stroke-linejoin="round"></path><path d="M3.38257 16.8094V11.649V3.81274H12.233H19.7668H28.6172V11.649V16.8094" stroke="white" stroke-width="1.5" stroke-linecap="round" stroke-linejoin="round"></path></g><defs><clipPath id="clip0_130_307"><rect width="32" height="38" fill="white"></rect></clipPath></defs></svg> 