<?xml version="1.0" encoding="UTF-8"?> <svg xmlns="http://www.w3.org/2000/svg" width="34" height="36" viewBox="0 0 34 36" fill="none"><g clip-path="url(#clip0_130_318)"><path d="M6.77686 24.3892V35.5462H33.5429V7.61138L26.3334 0.453735H6.77686V1.86348" stroke="white" stroke-width="1.5" stroke-linecap="round" stroke-linejoin="round"></path><path d="M15.2234 26.0349H10.5674V32.049H15.2234V26.0349Z" stroke="white" stroke-width="1.5" stroke-linecap="round" stroke-linejoin="round"></path><path d="M22.4878 23.3243H17.8318V32.0551H22.4878V23.3243Z" stroke="white" stroke-width="1.5" stroke-linecap="round" stroke-linejoin="round"></path><path d="M29.7583 20.3596H25.1023V32.0551H29.7583V20.3596Z" stroke="white" stroke-width="1.5" stroke-linecap="round" stroke-linejoin="round"></path><path d="M9.37906 21.7513C14.3066 21.7513 18.3011 17.7855 18.3011 12.8935C18.3011 8.00142 14.3066 4.03564 9.37906 4.03564C4.45156 4.03564 0.457031 8.00142 0.457031 12.8935C0.457031 17.7855 4.45156 21.7513 9.37906 21.7513Z" stroke="white" stroke-width="1.5" stroke-linecap="round" stroke-linejoin="round"></path><path d="M15.6867 19.1556L9.37915 12.8935V4.03564" stroke="white" stroke-width="1.5" stroke-linecap="round" stroke-linejoin="round"></path><path d="M15.6928 6.63123H15.6867L9.37915 12.8934" stroke="white" stroke-width="1.5" stroke-linecap="round" stroke-linejoin="round"></path><path d="M33.543 7.61138H26.3335V0.453735L33.543 7.61138Z" stroke="white" stroke-width="1.5" stroke-linecap="round" stroke-linejoin="round"></path><path d="M21.6165 11.5986H29.7584" stroke="white" stroke-width="1.5" stroke-linecap="round" stroke-linejoin="round"></path><path d="M21.6165 14.3092H29.7584" stroke="white" stroke-width="1.5" stroke-linecap="round" stroke-linejoin="round"></path><path d="M25.6875 17.0259H29.7585" stroke="white" stroke-width="1.5" stroke-linecap="round" stroke-linejoin="round"></path></g><defs><clipPath id="clip0_130_318"><rect width="34" height="36" fill="white"></rect></clipPath></defs></svg> 