<?xml version="1.0" encoding="UTF-8"?> <svg xmlns="http://www.w3.org/2000/svg" width="39" height="35" viewBox="0 0 39 35" fill="none"><g clip-path="url(#clip0_130_288)"><path d="M27.6605 0.489868H3.1462C1.67796 0.489868 0.491577 1.67221 0.491577 3.13544V21.6937C0.491577 23.1569 1.67796 24.3392 3.1462 24.3392H5.49275V28.84L10.9986 24.3392H27.6605C29.1287 24.3392 30.3151 23.1569 30.3151 21.6937V3.13544C30.3151 1.67221 29.1287 0.489868 27.6605 0.489868Z" stroke="white" stroke-width="1.5" stroke-linecap="round" stroke-linejoin="round"></path><path d="M32.6616 6.15991H35.8537C37.322 6.15991 38.5084 7.34226 38.5084 8.80549V27.3637C38.5084 28.8269 37.322 30.0093 35.8537 30.0093H33.5072V34.51L28.0013 30.0093H11.3395C10.4874 30.0093 9.72702 29.6108 9.24854 28.9837" stroke="white" stroke-width="1.5" stroke-linecap="round" stroke-linejoin="round"></path><path d="M5.69592 6.3429H25.2156" stroke="white" stroke-width="1.5" stroke-linecap="round" stroke-linejoin="round"></path><path d="M5.69592 10.2491H25.2156" stroke="white" stroke-width="1.5" stroke-linecap="round" stroke-linejoin="round"></path><path d="M5.69592 14.162H25.2156" stroke="white" stroke-width="1.5" stroke-linecap="round" stroke-linejoin="round"></path><path d="M5.69592 18.0684H20.6208" stroke="white" stroke-width="1.5" stroke-linecap="round" stroke-linejoin="round"></path></g><defs><clipPath id="clip0_130_288"><rect width="39" height="35" fill="white"></rect></clipPath></defs></svg> 