<?xml version="1.0" encoding="UTF-8"?> <svg xmlns="http://www.w3.org/2000/svg" width="38" height="38" viewBox="0 0 38 38" fill="none"><g clip-path="url(#clip0_130_352)"><path d="M28.2669 6.11224C29.0843 7.6273 29.5378 9.36994 29.5378 11.2166C29.5378 17.1403 24.8181 21.9456 19 21.9456C13.1818 21.9456 8.46216 17.1403 8.46216 11.2166C8.46216 5.29294 13.1818 0.487671 19 0.487671C20.8138 0.487671 22.5254 0.949341 24.0134 1.78165" stroke="white" stroke-width="1.5" stroke-linecap="round" stroke-linejoin="round"></path><path d="M25.1374 6.80805C26.0123 8.04351 26.5169 9.57157 26.5169 11.2167C26.5169 15.4432 23.1511 18.87 18.9999 18.87C14.8486 18.87 11.4829 15.4432 11.4829 11.2167C11.4829 6.99012 14.8486 3.56335 18.9999 3.56335C20.6157 3.56335 22.1165 4.07704 23.33 4.96787" stroke="white" stroke-width="1.5" stroke-linecap="round" stroke-linejoin="round"></path><path d="M23.1322 8.84978C23.5282 9.55204 23.7453 10.3583 23.7453 11.2167C23.7453 13.8826 21.6186 16.0479 19.0001 16.0479C16.3816 16.0479 14.2549 13.8826 14.2549 11.2167C14.2549 8.55067 16.3816 6.38538 19.0001 6.38538C19.8431 6.38538 20.6351 6.60646 21.3248 7.00961" stroke="white" stroke-width="1.5" stroke-linecap="round" stroke-linejoin="round"></path><path d="M21.0564 10.963C21.0564 11.0476 21.0692 11.1321 21.0692 11.2166C21.0692 12.3806 20.1431 13.3234 18.9999 13.3234C17.8567 13.3234 16.9307 12.3806 16.9307 11.2166C16.9307 10.0527 17.8567 9.10986 18.9999 9.10986C19.0829 9.10986 19.166 9.10986 19.249 9.12287" stroke="white" stroke-width="1.5" stroke-linecap="round" stroke-linejoin="round"></path><path d="M19 11.2166L24.9906 5.11734L27.526 2.53589" stroke="white" stroke-width="1.5" stroke-linecap="round" stroke-linejoin="round"></path><path d="M29.5378 2.97159L28.8608 3.66734L27.0151 5.54003L25.0033 5.09787L24.5754 3.05612L25.2524 2.36036L26.4148 1.17692L27.0981 0.487671L27.526 2.53593L29.5378 2.97159Z" stroke="white" stroke-width="1.5" stroke-linecap="round" stroke-linejoin="round"></path><path d="M4.90489 30.5353H8.39833C10.8444 30.5353 12.8242 32.5575 12.8242 35.0414V37.5123H0.479004V35.0414C0.479004 32.551 2.46522 30.5353 4.90489 30.5353Z" stroke="white" stroke-width="1.5" stroke-linecap="round" stroke-linejoin="round"></path><path d="M9.80325 27.3296C9.80325 29.0982 8.39182 30.5353 6.65468 30.5353C4.91753 30.5353 3.5061 29.0982 3.5061 27.3296C3.5061 25.5609 4.91753 24.1239 6.65468 24.1239C8.39182 24.1239 9.80325 25.5609 9.80325 27.3296Z" stroke="white" stroke-width="1.5" stroke-linecap="round" stroke-linejoin="round"></path><path d="M17.2564 30.5353H20.7499C23.1959 30.5353 25.1758 32.5575 25.1758 35.0414V37.5123H12.8306V35.0414C12.8306 32.551 14.8168 30.5353 17.2564 30.5353Z" stroke="white" stroke-width="1.5" stroke-linecap="round" stroke-linejoin="round"></path><path d="M18.9999 30.5353C20.7388 30.5353 22.1485 29.1 22.1485 27.3296C22.1485 25.5591 20.7388 24.1239 18.9999 24.1239C17.261 24.1239 15.8513 25.5591 15.8513 27.3296C15.8513 29.1 17.261 30.5353 18.9999 30.5353Z" stroke="white" stroke-width="1.5" stroke-linecap="round" stroke-linejoin="round"></path><path d="M29.6017 30.5353H33.0951C35.5412 30.5353 37.521 32.5575 37.521 35.0414V37.5123H25.1758V35.0414C25.1758 32.551 27.162 30.5353 29.6017 30.5353Z" stroke="white" stroke-width="1.5" stroke-linecap="round" stroke-linejoin="round"></path><path d="M31.3451 30.5353C33.084 30.5353 34.4937 29.1 34.4937 27.3296C34.4937 25.5591 33.084 24.1239 31.3451 24.1239C29.6062 24.1239 28.1965 25.5591 28.1965 27.3296C28.1965 29.1 29.6062 30.5353 31.3451 30.5353Z" stroke="white" stroke-width="1.5" stroke-linecap="round" stroke-linejoin="round"></path></g><defs><clipPath id="clip0_130_352"><rect width="38" height="38" fill="white"></rect></clipPath></defs></svg> 