<?xml version="1.0" encoding="UTF-8"?> <svg xmlns="http://www.w3.org/2000/svg" width="34" height="34" viewBox="0 0 34 34" fill="none"><g clip-path="url(#clip0_130_331)"><path d="M31.4629 8.91431C35 15.2229 34.08 23.3543 28.7143 28.72C22.24 35.1943 11.7543 35.1943 5.28003 28.72" stroke="white" stroke-width="1.5" stroke-linecap="round" stroke-linejoin="round"></path><path d="M2.53138 25.0915C-1.00005 18.7829 -0.0857664 10.6515 5.27995 5.28577C11.7542 -1.18852 22.2399 -1.18852 28.7142 5.28577" stroke="white" stroke-width="1.5" stroke-linecap="round" stroke-linejoin="round"></path><path d="M28.3143 2.01709L28.6743 5.23995L25.4514 5.59995" stroke="white" stroke-width="1.5" stroke-linecap="round" stroke-linejoin="round"></path><path d="M5.65138 31.9372L5.29138 28.7086L8.51424 28.3486" stroke="white" stroke-width="1.5" stroke-linecap="round" stroke-linejoin="round"></path><path d="M19.52 15.2857C19.52 16.6743 18.3943 17.8057 17 17.8057C15.6057 17.8057 14.48 16.68 14.48 15.2857C14.48 13.8915 15.6057 12.7657 17 12.7657C18.3943 12.7657 19.52 13.8915 19.52 15.2857Z" stroke="white" stroke-width="1.5" stroke-linecap="round" stroke-linejoin="round"></path><path d="M22.08 22.1771V23.6057H11.92V22.1771C11.92 21.0514 12.3429 20.0285 13.04 19.2571C13.8458 18.3714 15.0058 17.8057 16.2972 17.8057H17.7029C18.9943 17.8057 20.1543 18.3657 20.96 19.2571C21.6515 20.0285 22.08 21.0514 22.08 22.1771Z" stroke="white" stroke-width="1.5" stroke-linecap="round" stroke-linejoin="round"></path><path d="M25.8057 11.9085C25.8057 13.2971 24.68 14.4285 23.2857 14.4285C21.8915 14.4285 20.7657 13.3028 20.7657 11.9085C20.7657 10.5143 21.8915 9.38855 23.2857 9.38855C24.68 9.38855 25.8057 10.5143 25.8057 11.9085Z" stroke="white" stroke-width="1.5" stroke-linecap="round" stroke-linejoin="round"></path><path d="M20.6686 14.8686C21.2514 14.5829 21.8972 14.4229 22.5829 14.4229H23.9943C25.2857 14.4229 26.4457 14.9829 27.2514 15.8743C27.9429 16.6457 28.3714 17.6686 28.3714 18.7943V20.2229H22.9029" stroke="white" stroke-width="1.5" stroke-linecap="round" stroke-linejoin="round"></path><path d="M13.2286 11.9085C13.2286 13.2971 12.1029 14.4285 10.7086 14.4285C9.31431 14.4285 8.1886 13.3028 8.1886 11.9085C8.1886 10.5143 9.31431 9.38855 10.7086 9.38855C12.1029 9.38855 13.2286 10.5143 13.2286 11.9085Z" stroke="white" stroke-width="1.5" stroke-linecap="round" stroke-linejoin="round"></path><path d="M11.0971 20.2229H5.62854V18.7943C5.62854 17.6686 6.05711 16.6457 6.74854 15.8743C7.55425 14.9829 8.71425 14.4229 10.0057 14.4229H11.4114C12.1028 14.4229 12.7543 14.5829 13.3314 14.8686" stroke="white" stroke-width="1.5" stroke-linecap="round" stroke-linejoin="round"></path></g><defs><clipPath id="clip0_130_331"><rect width="34" height="34" fill="white"></rect></clipPath></defs></svg> 